<svg width="512" height="86" viewBox="0 0 512 86" fill="none" xmlns="http://www.w3.org/2000/svg">
<path d="M510.964 57.4318H502.305C502.259 56.8977 502.072 56.4375 501.742 56.0511C501.413 55.6648 500.987 55.3693 500.464 55.1648C499.953 54.9489 499.384 54.8409 498.759 54.8409C497.953 54.8409 497.259 54.9886 496.68 55.2841C496.1 55.5795 495.816 56 495.828 56.5454C495.816 56.9318 495.981 57.2898 496.322 57.6193C496.674 57.9489 497.35 58.2045 498.35 58.3864L503.668 59.3409C506.35 59.8295 508.345 60.6534 509.651 61.8125C510.97 62.9602 511.634 64.5 511.646 66.4318C511.634 68.2954 511.078 69.9148 509.975 71.2898C508.884 72.6534 507.39 73.7102 505.492 74.4602C503.606 75.1989 501.453 75.5682 499.032 75.5682C495.032 75.5682 491.901 74.75 489.64 73.1136C487.39 71.4773 486.134 69.3182 485.873 66.6364H495.214C495.339 67.4659 495.748 68.108 496.441 68.5625C497.146 69.0057 498.032 69.2273 499.1 69.2273C499.964 69.2273 500.674 69.0795 501.231 68.7841C501.799 68.4886 502.089 68.0682 502.1 67.5227C502.089 67.0227 501.839 66.625 501.35 66.3295C500.873 66.0341 500.123 65.7955 499.1 65.6136L494.464 64.7954C491.793 64.3295 489.793 63.4432 488.464 62.1364C487.134 60.8295 486.475 59.1477 486.487 57.0909C486.475 55.2727 486.953 53.7329 487.918 52.4716C488.896 51.1989 490.288 50.2329 492.095 49.5739C493.913 48.9034 496.066 48.5682 498.555 48.5682C502.339 48.5682 505.322 49.3523 507.504 50.9205C509.697 52.4886 510.85 54.6591 510.964 57.4318Z" fill="white"/>
<path d="M470.854 75.5682C468.059 75.5682 465.65 75.0341 463.627 73.9659C461.616 72.8864 460.065 71.3409 458.974 69.3295C457.894 67.3068 457.354 64.8864 457.354 62.0682C457.354 59.3636 457.9 57 458.991 54.9773C460.082 52.9545 461.621 51.3807 463.61 50.2557C465.599 49.1307 467.945 48.5682 470.65 48.5682C472.627 48.5682 474.417 48.875 476.019 49.4886C477.621 50.1023 478.991 50.9943 480.127 52.1648C481.264 53.3239 482.139 54.7329 482.752 56.392C483.366 58.0511 483.673 59.9205 483.673 62V64.1818H460.286V59H475.014C475.002 58.25 474.809 57.5909 474.434 57.0227C474.07 56.4432 473.576 55.9943 472.951 55.6761C472.337 55.3466 471.639 55.1818 470.854 55.1818C470.093 55.1818 469.394 55.3466 468.758 55.6761C468.121 55.9943 467.61 56.4375 467.224 57.0057C466.849 57.5739 466.65 58.2386 466.627 59V64.5909C466.627 65.4318 466.803 66.1818 467.156 66.8409C467.508 67.5 468.014 68.017 468.673 68.392C469.332 68.767 470.127 68.9545 471.059 68.9545C471.707 68.9545 472.298 68.8636 472.832 68.6818C473.377 68.5 473.843 68.2386 474.229 67.8977C474.616 67.5455 474.9 67.125 475.082 66.6364H483.673C483.377 68.4545 482.678 70.0341 481.576 71.375C480.474 72.7045 479.014 73.7386 477.195 74.4773C475.389 75.2045 473.275 75.5682 470.854 75.5682Z" fill="white"/>
<path d="M455.231 48.9091V55.7273H437.981V48.9091H455.231ZM441.322 42.6364H450.731V66.6705C450.731 67.0341 450.793 67.3409 450.918 67.5909C451.043 67.8295 451.236 68.0114 451.498 68.1364C451.759 68.25 452.094 68.3068 452.503 68.3068C452.788 68.3068 453.117 68.2727 453.492 68.2045C453.878 68.1364 454.163 68.0795 454.344 68.0341L455.708 74.6477C455.288 74.7727 454.685 74.9261 453.901 75.108C453.128 75.2898 452.208 75.4091 451.14 75.4659C448.981 75.5795 447.168 75.358 445.702 74.8011C444.236 74.233 443.134 73.3409 442.395 72.125C441.657 70.9091 441.299 69.3864 441.322 67.5568V42.6364Z" fill="white"/>
<path d="M418.475 60.3636V75.0909H409.066V48.9091H417.998V53.8864H418.27C418.839 52.2273 419.839 50.9261 421.27 49.983C422.714 49.0398 424.395 48.5682 426.316 48.5682C428.168 48.5682 429.776 48.9943 431.14 49.8466C432.515 50.6875 433.577 51.8466 434.327 53.3239C435.089 54.8011 435.464 56.4886 435.452 58.3864V75.0909H426.043V60.3636C426.054 59.0682 425.725 58.0511 425.054 57.3125C424.395 56.5739 423.475 56.2045 422.293 56.2045C421.52 56.2045 420.844 56.375 420.265 56.7159C419.696 57.0454 419.259 57.5227 418.952 58.1477C418.645 58.7614 418.486 59.5 418.475 60.3636Z" fill="white"/>
<path d="M392.888 75.5682C390.093 75.5682 387.684 75.0341 385.661 73.9659C383.65 72.8864 382.098 71.3409 381.008 69.3295C379.928 67.3068 379.388 64.8864 379.388 62.0682C379.388 59.3636 379.934 57 381.025 54.9773C382.115 52.9545 383.655 51.3807 385.644 50.2557C387.632 49.1307 389.979 48.5682 392.684 48.5682C394.661 48.5682 396.451 48.875 398.053 49.4886C399.655 50.1023 401.025 50.9943 402.161 52.1648C403.297 53.3239 404.172 54.7329 404.786 56.392C405.4 58.0511 405.706 59.9205 405.706 62V64.1818H382.32V59H397.047C397.036 58.25 396.843 57.5909 396.468 57.0227C396.104 56.4432 395.61 55.9943 394.985 55.6761C394.371 55.3466 393.672 55.1818 392.888 55.1818C392.127 55.1818 391.428 55.3466 390.792 55.6761C390.155 55.9943 389.644 56.4375 389.258 57.0057C388.883 57.5739 388.684 58.2386 388.661 59V64.5909C388.661 65.4318 388.837 66.1818 389.189 66.8409C389.542 67.5 390.047 68.017 390.706 68.392C391.365 68.767 392.161 68.9545 393.093 68.9545C393.74 68.9545 394.331 68.8636 394.865 68.6818C395.411 68.5 395.877 68.2386 396.263 67.8977C396.65 67.5455 396.934 67.125 397.115 66.6364H405.706C405.411 68.4545 404.712 70.0341 403.61 71.375C402.507 72.7045 401.047 73.7386 399.229 74.4773C397.422 75.2045 395.309 75.5682 392.888 75.5682Z" fill="white"/>
<path d="M362.264 85.4545C359.639 85.4545 357.389 85.0795 355.514 84.3295C353.651 83.5909 352.202 82.5682 351.168 81.2614C350.145 79.9659 349.571 78.4773 349.446 76.7954H358.514C358.605 77.3523 358.833 77.8011 359.196 78.142C359.56 78.4829 360.026 78.7273 360.594 78.875C361.174 79.0341 361.821 79.1136 362.537 79.1136C363.753 79.1136 364.759 78.8182 365.554 78.2273C366.361 77.6364 366.764 76.5682 366.764 75.0227V70.5909H366.492C366.151 71.4773 365.628 72.2329 364.924 72.8579C364.219 73.4716 363.372 73.9432 362.384 74.2727C361.395 74.5909 360.31 74.75 359.128 74.75C357.264 74.75 355.549 74.3182 353.98 73.4545C352.424 72.5909 351.174 71.2216 350.23 69.3466C349.299 67.4716 348.833 65.0227 348.833 62C348.833 58.8409 349.321 56.2727 350.299 54.2954C351.287 52.3182 352.56 50.8693 354.117 49.9489C355.685 49.0284 357.333 48.5682 359.06 48.5682C360.355 48.5682 361.492 48.7954 362.469 49.25C363.446 49.6932 364.264 50.2898 364.924 51.0398C365.583 51.7784 366.083 52.5909 366.424 53.4773H366.628V48.9091H376.037V75.0227C376.037 77.2386 375.463 79.1193 374.316 80.6648C373.179 82.2216 371.577 83.4091 369.509 84.2273C367.441 85.0454 365.026 85.4545 362.264 85.4545ZM362.605 68.0682C363.469 68.0682 364.208 67.8295 364.821 67.3523C365.446 66.8636 365.924 66.1704 366.253 65.2727C366.594 64.3636 366.764 63.2727 366.764 62C366.764 60.7045 366.594 59.5966 366.253 58.6761C365.924 57.7443 365.446 57.0341 364.821 56.5454C364.208 56.0454 363.469 55.7954 362.605 55.7954C361.742 55.7954 361.003 56.0454 360.389 56.5454C359.787 57.0341 359.321 57.7443 358.992 58.6761C358.674 59.5966 358.514 60.7045 358.514 62C358.514 63.2955 358.674 64.3977 358.992 65.3068C359.321 66.2045 359.787 66.892 360.389 67.3693C361.003 67.8352 361.742 68.0682 362.605 68.0682Z" fill="white"/>
<path d="M335.928 75.0909V48.9091H345.337V75.0909H335.928ZM340.632 46.1818C339.36 46.1818 338.269 45.7614 337.36 44.9205C336.45 44.0795 335.996 43.0682 335.996 41.8864C335.996 40.7045 336.45 39.6932 337.36 38.8523C338.269 38.0114 339.36 37.5909 340.632 37.5909C341.916 37.5909 343.007 38.0114 343.905 38.8523C344.814 39.6932 345.269 40.7045 345.269 41.8864C345.269 43.0682 344.814 44.0795 343.905 44.9205C343.007 45.7614 341.916 46.1818 340.632 46.1818Z" fill="white"/>
<path d="M331.614 40.1818V75.0909H322.205V40.1818H331.614Z" fill="white"/>
<path d="M306.027 75.5682C303.231 75.5682 300.822 75.0341 298.8 73.9659C296.788 72.8864 295.237 71.3409 294.146 69.3295C293.067 67.3068 292.527 64.8864 292.527 62.0682C292.527 59.3636 293.072 57 294.163 54.9773C295.254 52.9545 296.794 51.3807 298.783 50.2557C300.771 49.1307 303.118 48.5682 305.822 48.5682C307.8 48.5682 309.589 48.875 311.192 49.4886C312.794 50.1023 314.163 50.9943 315.3 52.1648C316.436 53.3239 317.311 54.7329 317.925 56.392C318.538 58.0511 318.845 59.9205 318.845 62V64.1818H295.459V59H310.186C310.175 58.25 309.981 57.5909 309.606 57.0227C309.243 56.4432 308.749 55.9943 308.124 55.6761C307.51 55.3466 306.811 55.1818 306.027 55.1818C305.266 55.1818 304.567 55.3466 303.93 55.6761C303.294 55.9943 302.783 56.4375 302.396 57.0057C302.021 57.5739 301.822 58.2386 301.8 59V64.5909C301.8 65.4318 301.976 66.1818 302.328 66.8409C302.68 67.5 303.186 68.017 303.845 68.392C304.504 68.767 305.3 68.9545 306.231 68.9545C306.879 68.9545 307.47 68.8636 308.004 68.6818C308.55 68.5 309.016 68.2386 309.402 67.8977C309.788 67.5455 310.072 67.125 310.254 66.6364H318.845C318.55 68.4545 317.851 70.0341 316.749 71.375C315.646 72.7045 314.186 73.7386 312.368 74.4773C310.561 75.2045 308.447 75.5682 306.027 75.5682Z" fill="white"/>
<path d="M290.403 48.9091V55.7273H273.153V48.9091H290.403ZM276.494 42.6364H285.903V66.6705C285.903 67.0341 285.966 67.3409 286.091 67.5909C286.216 67.8295 286.409 68.0114 286.67 68.1364C286.932 68.25 287.267 68.3068 287.676 68.3068C287.96 68.3068 288.29 68.2727 288.665 68.2045C289.051 68.1364 289.335 68.0795 289.517 68.0341L290.881 74.6477C290.46 74.7727 289.858 74.9261 289.074 75.108C288.301 75.2898 287.381 75.4091 286.312 75.4659C284.153 75.5795 282.341 75.358 280.875 74.8011C279.409 74.233 278.307 73.3409 277.568 72.125C276.829 70.9091 276.471 69.3864 276.494 67.5568V42.6364Z" fill="white"/>
<path d="M253.647 60.3636V75.0909H244.238V48.9091H253.17V53.8864H253.443C254.011 52.2273 255.011 50.9261 256.443 49.983C257.886 49.0398 259.568 48.5682 261.488 48.5682C263.341 48.5682 264.949 48.9943 266.312 49.8466C267.687 50.6875 268.75 51.8466 269.5 53.3239C270.261 54.8011 270.636 56.4886 270.625 58.3864V75.0909H261.216V60.3636C261.227 59.0682 260.897 58.0511 260.227 57.3125C259.568 56.5739 258.647 56.2045 257.466 56.2045C256.693 56.2045 256.017 56.375 255.437 56.7159C254.869 57.0454 254.432 57.5227 254.125 58.1477C253.818 58.7614 253.659 59.5 253.647 60.3636Z" fill="white"/>
<path d="M240.091 40.1818V75.0909H230.613V40.1818H240.091Z" fill="white"/>
<path d="M217.86 57.4318H209.201C209.156 56.8977 208.968 56.4375 208.639 56.0511C208.309 55.6648 207.883 55.3693 207.36 55.1648C206.849 54.9489 206.281 54.8409 205.656 54.8409C204.849 54.8409 204.156 54.9886 203.576 55.2841C202.997 55.5795 202.712 56 202.724 56.5454C202.712 56.9318 202.877 57.2898 203.218 57.6193C203.57 57.9489 204.247 58.2045 205.247 58.3864L210.565 59.3409C213.247 59.8295 215.241 60.6534 216.548 61.8125C217.866 62.9602 218.531 64.5 218.542 66.4318C218.531 68.2954 217.974 69.9148 216.872 71.2898C215.781 72.6534 214.286 73.7102 212.389 74.4602C210.502 75.1989 208.349 75.5682 205.928 75.5682C201.928 75.5682 198.798 74.75 196.536 73.1136C194.286 71.4773 193.031 69.3182 192.769 66.6364H202.11C202.235 67.4659 202.644 68.108 203.337 68.5625C204.042 69.0057 204.928 69.2273 205.997 69.2273C206.86 69.2273 207.57 69.0795 208.127 68.7841C208.695 68.4886 208.985 68.0682 208.997 67.5227C208.985 67.0227 208.735 66.625 208.247 66.3295C207.769 66.0341 207.019 65.7955 205.997 65.6136L201.36 64.7954C198.69 64.3295 196.69 63.4432 195.36 62.1364C194.031 60.8295 193.372 59.1477 193.383 57.0909C193.372 55.2727 193.849 53.7329 194.815 52.4716C195.792 51.1989 197.184 50.2329 198.991 49.5739C200.809 48.9034 202.962 48.5682 205.451 48.5682C209.235 48.5682 212.218 49.3523 214.4 50.9205C216.593 52.4886 217.747 54.6591 217.86 57.4318Z" fill="white"/>
<path d="M173.344 75.5C171.674 75.5 170.197 75.2273 168.913 74.6818C167.64 74.125 166.64 73.2841 165.913 72.1591C165.185 71.0341 164.822 69.6023 164.822 67.8636C164.822 66.4318 165.066 65.2102 165.555 64.1989C166.043 63.1761 166.725 62.3409 167.6 61.6932C168.475 61.0454 169.492 60.5511 170.651 60.2102C171.822 59.8693 173.083 59.6477 174.435 59.5454C175.901 59.4318 177.077 59.2954 177.964 59.1364C178.861 58.9659 179.509 58.7329 179.907 58.4375C180.305 58.1307 180.504 57.7273 180.504 57.2273V57.1591C180.504 56.4773 180.242 55.9545 179.719 55.5909C179.197 55.2273 178.526 55.0454 177.708 55.0454C176.81 55.0454 176.077 55.2443 175.509 55.642C174.952 56.0284 174.617 56.625 174.504 57.4318H165.844C165.958 55.8409 166.464 54.375 167.361 53.0341C168.271 51.6818 169.594 50.6023 171.333 49.7955C173.072 48.9773 175.242 48.5682 177.844 48.5682C179.719 48.5682 181.401 48.7898 182.89 49.233C184.379 49.6648 185.646 50.2727 186.691 51.0568C187.736 51.8295 188.532 52.7386 189.077 53.7841C189.634 54.8182 189.913 55.9432 189.913 57.1591V75.0909H181.117V71.4091H180.913C180.39 72.3864 179.754 73.1761 179.004 73.7784C178.265 74.3807 177.418 74.8182 176.464 75.0909C175.521 75.3636 174.481 75.5 173.344 75.5ZM176.413 69.5682C177.129 69.5682 177.799 69.4205 178.424 69.125C179.06 68.8295 179.577 68.4034 179.975 67.8466C180.373 67.2898 180.572 66.6136 180.572 65.8182V63.6364C180.322 63.7386 180.055 63.8352 179.771 63.9261C179.498 64.017 179.202 64.1023 178.884 64.1818C178.577 64.2614 178.248 64.3352 177.896 64.4034C177.555 64.4716 177.197 64.5341 176.822 64.5909C176.094 64.7045 175.498 64.892 175.032 65.1534C174.577 65.4034 174.236 65.7159 174.009 66.0909C173.793 66.4545 173.685 66.8636 173.685 67.3182C173.685 68.0454 173.941 68.6023 174.452 68.9886C174.964 69.375 175.617 69.5682 176.413 69.5682Z" fill="white"/>
<path d="M121.388 75.0909V48.9091H130.32V53.8864H130.593C131.138 52.25 132.07 50.9545 133.388 50C134.707 49.0454 136.275 48.5682 138.093 48.5682C139.934 48.5682 141.519 49.0568 142.849 50.0341C144.178 51 144.979 52.2841 145.252 53.8864H145.525C145.968 52.2841 146.911 51 148.354 50.0341C149.797 49.0568 151.491 48.5682 153.434 48.5682C155.945 48.5682 157.979 49.375 159.536 50.9886C161.104 52.6023 161.888 54.75 161.888 57.4318V75.0909H152.479V59.8182C152.479 58.6704 152.189 57.7727 151.61 57.125C151.03 56.4659 150.252 56.1364 149.275 56.1364C148.309 56.1364 147.542 56.4659 146.974 57.125C146.417 57.7727 146.138 58.6704 146.138 59.8182V75.0909H137.138V59.8182C137.138 58.6704 136.849 57.7727 136.269 57.125C135.689 56.4659 134.911 56.1364 133.934 56.1364C133.286 56.1364 132.729 56.2841 132.263 56.5795C131.797 56.875 131.434 57.3011 131.172 57.8579C130.922 58.4034 130.797 59.0568 130.797 59.8182V75.0909H121.388Z" fill="white"/>
<path d="M105.211 75.5682C102.415 75.5682 100.006 75.0341 97.9834 73.9659C95.972 72.8864 94.4209 71.3409 93.33 69.3295C92.2505 67.3068 91.7107 64.8864 91.7107 62.0682C91.7107 59.3636 92.2561 57 93.347 54.9773C94.438 52.9545 95.9777 51.3807 97.9664 50.2557C99.955 49.1307 102.302 48.5682 105.006 48.5682C106.983 48.5682 108.773 48.875 110.375 49.4886C111.978 50.1023 113.347 50.9943 114.483 52.1648C115.62 53.3239 116.495 54.7329 117.108 56.392C117.722 58.0511 118.029 59.9205 118.029 62V64.1818H94.6425V59H109.37C109.358 58.25 109.165 57.5909 108.79 57.0227C108.427 56.4432 107.932 55.9943 107.307 55.6761C106.694 55.3466 105.995 55.1818 105.211 55.1818C104.449 55.1818 103.75 55.3466 103.114 55.6761C102.478 55.9943 101.966 56.4375 101.58 57.0057C101.205 57.5739 101.006 58.2386 100.983 59V64.5909C100.983 65.4318 101.16 66.1818 101.512 66.8409C101.864 67.5 102.37 68.017 103.029 68.392C103.688 68.767 104.483 68.9545 105.415 68.9545C106.063 68.9545 106.654 68.8636 107.188 68.6818C107.733 68.5 108.199 68.2386 108.586 67.8977C108.972 67.5455 109.256 67.125 109.438 66.6364H118.029C117.733 68.4545 117.035 70.0341 115.932 71.375C114.83 72.7045 113.37 73.7386 111.552 74.4773C109.745 75.2045 107.631 75.5682 105.211 75.5682Z" fill="white"/>
<path d="M89.587 48.9091V55.7273H72.337V48.9091H89.587ZM75.6779 42.6364H85.087V66.6705C85.087 67.0341 85.1495 67.3409 85.2745 67.5909C85.3995 67.8295 85.5927 68.0114 85.854 68.1364C86.1154 68.25 86.4506 68.3068 86.8597 68.3068C87.1438 68.3068 87.4734 68.2727 87.8484 68.2045C88.2347 68.1364 88.5188 68.0795 88.7006 68.0341L90.0643 74.6477C89.6438 74.7727 89.0415 74.9261 88.2574 75.108C87.4847 75.2898 86.5643 75.4091 85.4961 75.4659C83.337 75.5795 81.5245 75.358 80.0586 74.8011C78.5927 74.233 77.4904 73.3409 76.7518 72.125C76.0131 70.9091 75.6552 69.3864 75.6779 67.5568V42.6364Z" fill="white"/>
<path d="M70.1664 57.4318H61.5073C61.4619 56.8977 61.2744 56.4375 60.9448 56.0511C60.6153 55.6648 60.1892 55.3693 59.6664 55.1648C59.1551 54.9489 58.5869 54.8409 57.9619 54.8409C57.1551 54.8409 56.4619 54.9886 55.8823 55.2841C55.3028 55.5795 55.0187 56 55.0301 56.5454C55.0187 56.9318 55.1835 57.2898 55.5244 57.6193C55.8767 57.9489 56.5528 58.2045 57.5528 58.3864L62.871 59.3409C65.5528 59.8295 67.5471 60.6534 68.8539 61.8125C70.1721 62.9602 70.8369 64.5 70.8482 66.4318C70.8369 68.2954 70.2801 69.9148 69.1778 71.2898C68.0869 72.6534 66.5926 73.7102 64.6948 74.4602C62.8085 75.1989 60.6551 75.5682 58.2346 75.5682C54.2346 75.5682 51.1039 74.75 48.8426 73.1136C46.5926 71.4773 45.3369 69.3182 45.0755 66.6364H54.4164C54.5414 67.4659 54.9505 68.108 55.6437 68.5625C56.3482 69.0057 57.2346 69.2273 58.3028 69.2273C59.1664 69.2273 59.8767 69.0795 60.4335 68.7841C61.0017 68.4886 61.2914 68.0682 61.3028 67.5227C61.2914 67.0227 61.0414 66.625 60.5528 66.3295C60.0755 66.0341 59.3255 65.7955 58.3028 65.6136L53.6664 64.7954C50.996 64.3295 48.996 63.4432 47.6664 62.1364C46.3369 60.8295 45.6778 59.1477 45.6892 57.0909C45.6778 55.2727 46.1551 53.7329 47.121 52.4716C48.0982 51.1989 49.4903 50.2329 51.2971 49.5739C53.1153 48.9034 55.2687 48.5682 57.7573 48.5682C61.5414 48.5682 64.5244 49.3523 66.7062 50.9205C68.8994 52.4886 70.0528 54.6591 70.1664 57.4318Z" fill="white"/>
<path d="M32.5115 75.0909V48.9091H41.9206V75.0909H32.5115ZM37.216 46.1818C35.9433 46.1818 34.8524 45.7614 33.9433 44.9205C33.0342 44.0795 32.5797 43.0682 32.5797 41.8864C32.5797 40.7045 33.0342 39.6932 33.9433 38.8523C34.8524 38.0114 35.9433 37.5909 37.216 37.5909C38.5001 37.5909 39.591 38.0114 40.4888 38.8523C41.3979 39.6932 41.8524 40.7045 41.8524 41.8864C41.8524 43.0682 41.3979 44.0795 40.4888 44.9205C39.591 45.7614 38.5001 46.1818 37.216 46.1818Z" fill="white"/>
<path d="M19.7045 51.0909C19.6136 49.9545 19.1875 49.0682 18.4261 48.4318C17.6761 47.7955 16.5341 47.4773 15 47.4773C14.0227 47.4773 13.2216 47.5966 12.5966 47.8352C11.983 48.0625 11.5284 48.375 11.233 48.7727C10.9375 49.1705 10.7841 49.625 10.7727 50.1364C10.75 50.5568 10.8239 50.9375 10.9943 51.2784C11.1761 51.608 11.4602 51.9091 11.8466 52.1818C12.233 52.4432 12.7273 52.6818 13.3295 52.8977C13.9318 53.1136 14.6477 53.3068 15.4773 53.4773L18.3409 54.0909C20.2727 54.5 21.9261 55.0398 23.3011 55.7102C24.6761 56.3807 25.8011 57.1705 26.6761 58.0795C27.5511 58.9773 28.1932 59.9886 28.6023 61.1136C29.0227 62.2386 29.2386 63.4659 29.25 64.7955C29.2386 67.0909 28.6648 69.0341 27.5284 70.625C26.392 72.2159 24.767 73.4261 22.6534 74.2557C20.5511 75.0852 18.0227 75.5 15.0682 75.5C12.0341 75.5 9.38636 75.0511 7.125 74.1534C4.875 73.2557 3.125 71.875 1.875 70.0114C0.636364 68.1364 0.0113636 65.7386 0 62.8182H9C9.05682 63.8864 9.32386 64.7841 9.80114 65.5114C10.2784 66.2386 10.9489 66.7898 11.8125 67.1648C12.6875 67.5398 13.7273 67.7273 14.9318 67.7273C15.9432 67.7273 16.7898 67.6023 17.4716 67.3523C18.1534 67.1023 18.6705 66.7557 19.0227 66.3125C19.375 65.8693 19.5568 65.3636 19.5682 64.7955C19.5568 64.2614 19.3807 63.7955 19.0398 63.3977C18.7102 62.9886 18.1648 62.625 17.4034 62.3068C16.642 61.9773 15.6136 61.6705 14.3182 61.3864L10.8409 60.6364C7.75 59.9659 5.3125 58.8466 3.52841 57.2784C1.75568 55.6989 0.875 53.5455 0.886364 50.8182C0.875 48.6023 1.46591 46.6648 2.65909 45.0057C3.86364 43.3352 5.52841 42.0341 7.65341 41.1023C9.78977 40.1705 12.2386 39.7045 15 39.7045C17.8182 39.7045 20.2557 40.1761 22.3125 41.1193C24.3693 42.0625 25.9545 43.392 27.0682 45.108C28.1932 46.8125 28.7614 48.8068 28.7727 51.0909H19.7045Z" fill="white"/>
<path d="M223.393 14.9432V29.0909H221.66V7.27274H223.35V10.7244H223.521C224.032 9.59755 224.851 8.69319 225.978 8.01138C227.105 7.32956 228.445 6.98865 229.998 6.98865C231.466 6.98865 232.754 7.30115 233.861 7.92615C234.979 8.55115 235.85 9.4413 236.475 10.5966C237.11 11.7424 237.427 13.1108 237.427 14.7017V29.0909H235.694V14.7727C235.694 12.9167 235.14 11.4252 234.032 10.2983C232.933 9.16194 231.48 8.59376 229.671 8.59376C228.459 8.59376 227.379 8.85891 226.432 9.38921C225.486 9.91952 224.742 10.6629 224.202 11.6193C223.663 12.5663 223.393 13.6743 223.393 14.9432Z" fill="white"/>
<path d="M209.043 29.5455C207.074 29.5455 205.36 29.0578 203.901 28.0824C202.443 27.107 201.316 25.7718 200.521 24.0767C199.725 22.3816 199.327 20.4498 199.327 18.2813C199.327 16.1032 199.725 14.1619 200.521 12.4574C201.325 10.7528 202.429 9.40815 203.83 8.4233C205.232 7.43846 206.832 6.94603 208.631 6.94603C209.853 6.94603 211.008 7.19224 212.097 7.68467C213.196 8.16762 214.162 8.86838 214.995 9.78694C215.838 10.7055 216.496 11.8135 216.969 13.1108C217.452 14.4082 217.694 15.8665 217.694 17.4858V18.5653H200.421V16.9886H215.961C215.961 15.4072 215.639 13.982 214.995 12.7131C214.351 11.4441 213.475 10.4356 212.367 9.68751C211.259 8.9394 210.014 8.56535 208.631 8.56535C207.182 8.56535 205.89 8.97254 204.754 9.78694C203.627 10.5919 202.732 11.6809 202.069 13.054C201.415 14.4271 201.075 15.9612 201.046 17.6563V18.3665C201.046 20.1847 201.363 21.8182 201.998 23.2671C202.642 24.7064 203.56 25.8475 204.754 26.6903C205.947 27.5237 207.377 27.9403 209.043 27.9403C210.236 27.9403 211.254 27.7415 212.097 27.3438C212.95 26.9366 213.646 26.4441 214.185 25.8665C214.725 25.2888 215.132 24.7301 215.407 24.1903L216.984 24.8296C216.652 25.5587 216.136 26.2879 215.435 27.0171C214.744 27.7368 213.863 28.3381 212.793 28.821C211.733 29.304 210.483 29.5455 209.043 29.5455Z" fill="white"/>
<path d="M177.997 29.5455C176.198 29.5455 174.597 29.0625 173.196 28.0966C171.794 27.1212 170.691 25.7813 169.886 24.0767C169.081 22.3722 168.679 20.4309 168.679 18.2528C168.679 16.0653 169.081 14.1241 169.886 12.429C170.691 10.7244 171.794 9.38448 173.196 8.4091C174.597 7.43372 176.198 6.94603 177.997 6.94603C179.796 6.94603 181.397 7.43372 182.798 8.4091C184.2 9.38448 185.303 10.7244 186.108 12.429C186.913 14.1335 187.315 16.0748 187.315 18.2528C187.315 20.4309 186.913 22.3722 186.108 24.0767C185.303 25.7813 184.2 27.1212 182.798 28.0966C181.397 29.0625 179.796 29.5455 177.997 29.5455ZM177.997 27.9403C179.522 27.9403 180.852 27.5095 181.989 26.6477C183.134 25.786 184.02 24.6212 184.645 23.1534C185.279 21.6856 185.597 20.0521 185.597 18.2528C185.597 16.4536 185.279 14.8248 184.645 13.3665C184.01 11.8987 183.125 10.7339 181.989 9.87217C180.852 9.00095 179.522 8.56535 177.997 8.56535C176.472 8.56535 175.142 9.00095 174.006 9.87217C172.869 10.7339 171.984 11.8987 171.349 13.3665C170.715 14.8248 170.398 16.4536 170.398 18.2528C170.398 20.0521 170.71 21.6856 171.335 23.1534C171.97 24.6212 172.855 25.786 173.991 26.6477C175.137 27.5095 176.472 27.9403 177.997 27.9403Z" fill="white"/>
<path d="M162.909 29.0909V7.27273H164.628V29.0909H162.909ZM163.776 3.4091C163.397 3.4091 163.065 3.27652 162.781 3.01137C162.507 2.74622 162.369 2.42425 162.369 2.04546C162.369 1.66667 162.507 1.3447 162.781 1.07955C163.056 0.814399 163.387 0.681824 163.776 0.681824C164.154 0.681824 164.481 0.814399 164.756 1.07955C165.04 1.3447 165.182 1.66667 165.182 2.04546C165.182 2.42425 165.045 2.74622 164.77 3.01137C164.495 3.27652 164.164 3.4091 163.776 3.4091Z" fill="white"/>
<path d="M151.191 29.0909V7.27272H152.881V10.6818H153.038C153.511 9.56439 154.311 8.6695 155.438 7.99715C156.565 7.31534 157.848 6.97443 159.288 6.97443C159.439 6.97443 159.591 6.97443 159.742 6.97443C159.894 6.97443 160.036 6.97916 160.168 6.98863V8.73579C160.055 8.72632 159.917 8.71211 159.756 8.69318C159.605 8.66477 159.415 8.65056 159.188 8.65056C157.976 8.65056 156.897 8.91098 155.95 9.43181C155.012 9.95265 154.273 10.6723 153.734 11.5909C153.194 12.5 152.924 13.5417 152.924 14.7159V29.0909H151.191Z" fill="white"/>
<path d="M137.903 29.5455C136.104 29.5455 134.504 29.0625 133.102 28.0966C131.701 27.1212 130.597 25.7813 129.793 24.0767C128.988 22.3722 128.585 20.4309 128.585 18.2528C128.585 16.0653 128.988 14.1241 129.793 12.429C130.597 10.7244 131.701 9.38448 133.102 8.4091C134.504 7.43372 136.104 6.94603 137.903 6.94603C139.703 6.94603 141.303 7.43372 142.704 8.4091C144.106 9.38448 145.209 10.7244 146.014 12.429C146.819 14.1335 147.222 16.0748 147.222 18.2528C147.222 20.4309 146.819 22.3722 146.014 24.0767C145.209 25.7813 144.106 27.1212 142.704 28.0966C141.303 29.0625 139.703 29.5455 137.903 29.5455ZM137.903 27.9403C139.428 27.9403 140.758 27.5095 141.895 26.6477C143.041 25.786 143.926 24.6212 144.551 23.1534C145.186 21.6856 145.503 20.0521 145.503 18.2528C145.503 16.4536 145.186 14.8248 144.551 13.3665C143.917 11.8987 143.031 10.7339 141.895 9.87217C140.758 9.00095 139.428 8.56535 137.903 8.56535C136.379 8.56535 135.048 9.00095 133.912 9.87217C132.776 10.7339 131.89 11.8987 131.256 13.3665C130.621 14.8248 130.304 16.4536 130.304 18.2528C130.304 20.0521 130.616 21.6856 131.241 23.1534C131.876 24.6212 132.761 25.786 133.898 26.6477C135.044 27.5095 136.379 27.9403 137.903 27.9403Z" fill="white"/>
<path d="M125.599 7.27273V8.82102H116.068V7.27273H125.599ZM119.293 2.04546H121.011V23.9347C121.011 24.8248 121.182 25.554 121.523 26.1222C121.873 26.6809 122.328 27.0975 122.886 27.3722C123.455 27.6373 124.061 27.7699 124.705 27.7699C125.017 27.7699 125.287 27.7462 125.514 27.6989C125.751 27.6515 125.973 27.59 126.182 27.5142L126.608 29.0909C126.343 29.1856 126.049 29.2661 125.727 29.3324C125.405 29.4081 125.026 29.446 124.591 29.446C123.682 29.446 122.82 29.2424 122.006 28.8352C121.201 28.428 120.547 27.8362 120.045 27.0597C119.544 26.2831 119.293 25.3456 119.293 24.2472V2.04546Z" fill="white"/>
<path d="M103.714 29.5597C102.455 29.5597 101.3 29.3087 100.249 28.8068C99.2069 28.3049 98.3688 27.571 97.7344 26.6051C97.1094 25.6392 96.7969 24.465 96.7969 23.0824C96.7969 22.1733 96.9578 21.3731 97.2798 20.6818C97.6018 19.9905 98.0989 19.3939 98.7713 18.8921C99.4436 18.3902 100.305 17.9782 101.357 17.6563C102.408 17.3248 103.662 17.0691 105.121 16.8892C106.229 16.7566 107.218 16.6288 108.089 16.5057C108.961 16.3731 109.643 16.1695 110.135 15.8949C110.637 15.6203 110.888 15.2036 110.888 14.6449V13.7358C110.888 12.1449 110.386 10.8807 109.382 9.94319C108.378 9.00569 106.996 8.53694 105.234 8.53694C103.672 8.53694 102.356 8.88258 101.285 9.57387C100.225 10.2557 99.4815 11.1364 99.0554 12.2159L97.4219 11.6051C97.8385 10.5635 98.4398 9.69698 99.2258 9.00569C100.021 8.3144 100.93 7.7983 101.953 7.4574C102.985 7.11649 104.065 6.94603 105.192 6.94603C106.167 6.94603 107.095 7.08334 107.976 7.35796C108.866 7.63258 109.657 8.04925 110.348 8.60796C111.049 9.16667 111.603 9.88164 112.01 10.7528C112.417 11.6146 112.621 12.6468 112.621 13.8494V29.0909H110.888V25.1563H110.76C110.381 25.9707 109.86 26.714 109.197 27.3864C108.544 28.0493 107.753 28.5796 106.825 28.9773C105.907 29.3655 104.87 29.5597 103.714 29.5597ZM103.885 27.9546C105.249 27.9546 106.456 27.6231 107.507 26.9602C108.568 26.2879 109.396 25.3693 109.993 24.2046C110.589 23.0398 110.888 21.7188 110.888 20.2415V17.0313C110.67 17.2207 110.353 17.3911 109.936 17.5426C109.529 17.6847 109.065 17.8125 108.544 17.9261C108.033 18.0303 107.493 18.125 106.925 18.2102C106.366 18.286 105.821 18.357 105.291 18.4233C103.7 18.6127 102.403 18.9063 101.399 19.304C100.405 19.6922 99.6756 20.2036 99.2116 20.8381C98.7571 21.4725 98.5298 22.2396 98.5298 23.1392C98.5298 24.626 99.0412 25.8002 100.064 26.6619C101.087 27.5237 102.36 27.9546 103.885 27.9546Z" fill="white"/>
<path d="M86.3004 29.0909V7.27272H87.9907V10.6818H88.147C88.6205 9.56439 89.4207 8.6695 90.5476 7.99715C91.6745 7.31534 92.9576 6.97443 94.397 6.97443C94.5485 6.97443 94.7 6.97443 94.8515 6.97443C95.0031 6.97443 95.1451 6.97916 95.2777 6.98863V8.73579C95.164 8.72632 95.0267 8.71211 94.8657 8.69318C94.7142 8.66477 94.5248 8.65056 94.2976 8.65056C93.0854 8.65056 92.0059 8.91098 91.0589 9.43181C90.1214 9.95265 89.3828 10.6723 88.843 11.5909C88.3032 12.5 88.0334 13.5417 88.0334 14.7159V29.0909H86.3004Z" fill="white"/>
<path d="M73.0127 29.5455C71.2135 29.5455 69.6131 29.0625 68.2116 28.0966C66.8101 27.1212 65.7069 25.7813 64.902 24.0767C64.097 22.3722 63.6946 20.4309 63.6946 18.2528C63.6946 16.0653 64.097 14.1241 64.902 12.429C65.7069 10.7244 66.8101 9.38448 68.2116 8.4091C69.6131 7.43372 71.2135 6.94603 73.0127 6.94603C74.812 6.94603 76.4124 7.43372 77.8139 8.4091C79.2154 9.38448 80.3186 10.7244 81.1235 12.429C81.9285 14.1335 82.3309 16.0748 82.3309 18.2528C82.3309 20.4309 81.9285 22.3722 81.1235 24.0767C80.3186 25.7813 79.2154 27.1212 77.8139 28.0966C76.4124 29.0625 74.812 29.5455 73.0127 29.5455ZM73.0127 27.9403C74.5374 27.9403 75.8679 27.5095 77.0042 26.6477C78.1501 25.786 79.0355 24.6212 79.6605 23.1534C80.2949 21.6856 80.6122 20.0521 80.6122 18.2528C80.6122 16.4536 80.2949 14.8248 79.6605 13.3665C79.026 11.8987 78.1406 10.7339 77.0042 9.87217C75.8679 9.00095 74.5374 8.56535 73.0127 8.56535C71.4881 8.56535 70.1576 9.00095 69.0213 9.87217C67.8849 10.7339 66.9995 11.8987 66.365 13.3665C65.7306 14.8248 65.4133 16.4536 65.4133 18.2528C65.4133 20.0521 65.7258 21.6856 66.3508 23.1534C66.9853 24.6212 67.8707 25.786 69.0071 26.6477C70.1529 27.5095 71.4881 27.9403 73.0127 27.9403Z" fill="white"/>
<path d="M43.294 29.0909V0H45.0127V12.1449H45.1832C45.5241 11.2074 46.0071 10.3456 46.6321 9.55966C47.2571 8.77367 48.0336 8.14394 48.9616 7.67045C49.8896 7.1875 50.9739 6.94602 52.2144 6.94602C53.9663 6.94602 55.4957 7.43371 56.8025 8.40909C58.1093 9.375 59.1226 10.7102 59.8423 12.4148C60.562 14.1098 60.9218 16.0511 60.9218 18.2386C60.9218 20.4451 60.562 22.4006 59.8423 24.1051C59.1226 25.8002 58.1141 27.1307 56.8167 28.0966C55.5194 29.0625 53.99 29.5455 52.2287 29.5455C50.9881 29.5455 49.9038 29.3087 48.9758 28.8352C48.0478 28.3523 47.2713 27.7178 46.6463 26.9318C46.0213 26.1364 45.5336 25.2699 45.1832 24.3324H44.9843V29.0909H43.294ZM44.9985 18.2244C44.9985 20.0805 45.2779 21.7424 45.8366 23.2102C46.4048 24.6686 47.2192 25.8239 48.2798 26.6761C49.3404 27.5189 50.6093 27.9403 52.0866 27.9403C53.5828 27.9403 54.8612 27.5142 55.9218 26.6619C56.9824 25.8002 57.7921 24.6354 58.3508 23.1676C58.919 21.6998 59.2031 20.0521 59.2031 18.2244C59.2031 16.3968 58.919 14.7538 58.3508 13.2955C57.7921 11.8371 56.9824 10.6866 55.9218 9.84375C54.8612 8.99148 53.5828 8.56534 52.0866 8.56534C50.6093 8.56534 49.3404 8.98674 48.2798 9.82955C47.2192 10.6629 46.4048 11.8087 45.8366 13.267C45.2779 14.7159 44.9985 16.3684 44.9985 18.2244Z" fill="white"/>
<path d="M28.5113 29.5597C27.2519 29.5597 26.0966 29.3087 25.0454 28.8068C24.0038 28.3049 23.1657 27.571 22.5312 26.6051C21.9062 25.6392 21.5937 24.465 21.5937 23.0824C21.5937 22.1733 21.7547 21.3731 22.0767 20.6818C22.3986 19.9905 22.8958 19.3939 23.5682 18.8921C24.2405 18.3902 25.1022 17.9782 26.1534 17.6563C27.2045 17.3248 28.4593 17.0691 29.9176 16.8892C31.0255 16.7566 32.0151 16.6288 32.8863 16.5057C33.7575 16.3731 34.4394 16.1695 34.9318 15.8949C35.4337 15.6203 35.6846 15.2036 35.6846 14.6449V13.7358C35.6846 12.1449 35.1827 10.8807 34.1789 9.94319C33.1752 9.00569 31.7926 8.53694 30.0312 8.53694C28.4687 8.53694 27.1524 8.88258 26.0824 9.57387C25.0218 10.2557 24.2784 11.1364 23.8522 12.2159L22.2187 11.6051C22.6354 10.5635 23.2367 9.69698 24.0227 9.00569C24.8182 8.3144 25.7272 7.7983 26.75 7.4574C27.7822 7.11649 28.8617 6.94603 29.9886 6.94603C30.964 6.94603 31.892 7.08334 32.7727 7.35796C33.6628 7.63258 34.4536 8.04925 35.1449 8.60796C35.8456 9.16667 36.3996 9.88164 36.8068 10.7528C37.214 11.6146 37.4176 12.6468 37.4176 13.8494V29.0909H35.6846V25.1563H35.5568C35.178 25.9707 34.6572 26.714 33.9943 27.3864C33.3409 28.0493 32.5502 28.5796 31.6221 28.9773C30.7036 29.3655 29.6666 29.5597 28.5113 29.5597ZM28.6818 27.9546C30.0454 27.9546 31.2528 27.6231 32.3039 26.9602C33.3646 26.2879 34.1932 25.3693 34.7897 24.2046C35.3863 23.0398 35.6846 21.7188 35.6846 20.2415V17.0313C35.4668 17.2207 35.1496 17.3911 34.7329 17.5426C34.3257 17.6847 33.8617 17.8125 33.3409 17.9261C32.8295 18.0303 32.2897 18.125 31.7216 18.2102C31.1628 18.286 30.6183 18.357 30.088 18.4233C28.4971 18.6127 27.1998 18.9063 26.196 19.304C25.2017 19.6922 24.4725 20.2036 24.0085 20.8381C23.5539 21.4725 23.3267 22.2396 23.3267 23.1392C23.3267 24.626 23.838 25.8002 24.8608 26.6619C25.8835 27.5237 27.1572 27.9546 28.6818 27.9546Z" fill="white"/>
<path d="M2.84088 29.0909V0H4.61645V27.4432H18.821V29.0909H2.84088Z" fill="white"/>
</svg>
